<?xml version="1.0" standalone="no"?>
<!DOCTYPE svg PUBLIC "-//W3C//DTD SVG 20010904//EN"
 "http://www.w3.org/TR/2001/REC-SVG-20010904/DTD/svg10.dtd">
<svg version="1.0" xmlns="http://www.w3.org/2000/svg"
 width="500.000000pt" height="500.000000pt" viewBox="0 0 500.000000 500.000000"
 preserveAspectRatio="xMidYMid meet">
<metadata>
Created by potrace 1.14, written by Peter Selinger 2001-2017
</metadata>
<g transform="translate(0.000000,500.000000) scale(0.100000,-0.100000)"
fill="#000000" stroke="none">
<path d="M1830 3624 c-14 -2 -65 -9 -115 -15 -125 -15 -294 -60 -402 -107 -87
-38 -233 -124 -233 -138 0 -12 185 -354 191 -354 4 0 31 16 60 36 155 105 369
164 594 164 169 0 279 -30 378 -104 77 -57 134 -177 144 -307 l6 -77 -384 -5
c-404 -6 -476 -12 -619 -58 -210 -68 -358 -209 -415 -396 -9 -26 -18 -88 -21
-138 -27 -413 329 -703 836 -682 259 11 434 77 568 215 l62 64 0 -126 0 -126
235 0 235 0 0 678 c0 394 -5 706 -10 747 -62 434 -311 667 -775 724 -84 10
-278 13 -335 5z m620 -1367 c0 -114 -2 -127 -27 -178 -60 -120 -204 -222 -363
-255 -106 -22 -284 -15 -361 15 -122 47 -192 142 -192 260 0 113 47 191 143
234 90 40 142 45 478 46 l322 1 0 -123z"/>
<path d="M3585 2010 c-93 -13 -173 -69 -218 -154 -18 -34 -22 -57 -22 -136 0
-107 16 -151 79 -213 59 -59 119 -82 216 -82 97 0 154 22 215 83 107 107 113
300 12 409 -59 64 -94 80 -212 97 -11 2 -43 0 -70 -4z"/>
</g>
</svg>
